<?xml version="1.0" encoding="UTF-8"?>
    <svg width="130" height="87" version="1.1" viewBox="0 0 34.396 23.019" xmlns="http://www.w3.org/2000/svg" xmlns:cc="http://creativecommons.org/ns#" xmlns:dc="http://purl.org/dc/elements/1.1/" xmlns:rdf="http://www.w3.org/1999/02/22-rdf-syntax-ns#">
    <g>
        <path d="m28.783 0.44943v0.74408h-21.68v-0.41293h-2.2482v0.41293h-4.3656v6.1341h12.235a7.0742 7.0742 0 0 1 4.932-2.0312 7.0742 7.0742 0 0 1 0.02905 0 7.0742 7.0742 0 0 1 4.9608 2.0312h11.375v-6.1341h-4.4183v-0.74408zm-15.206 0.053065v0.68816h7.4337v-0.68816zm4.1071 6.2796a5.5885 5.5885 0 0 0-5.5886 5.5885 5.5885 5.5885 0 0 0 5.5886 5.5886 5.5885 5.5885 0 0 0 5.5886-5.5886 5.5885 5.5885 0 0 0-5.5886-5.5885zm-17.196 2.0337v13.872h33.531v-13.872h-10.22a7.0742 7.0742 0 0 1 0.95801 3.5548 7.0742 7.0742 0 0 1-7.074 7.0742 7.0742 7.0742 0 0 1-7.0742-7.0742 7.0742 7.0742 0 0 1 0.95801-3.5548z" stroke="#000" stroke-linecap="round" stroke-linejoin="round" stroke-width=".64991" style="paint-order:markers fill stroke"/>
    </g>
</svg>

